<mxfile host="app.diagrams.net" agent="Mozilla/5.0 (Windows NT 10.0; Win64; x64) AppleWebKit/537.36 (KHTML, like Gecko) Chrome/130.0.0.0 Safari/537.36" version="24.8.4">
  <diagram name="Page-1" id="PaHoSJtw0vRdKEdavUkK">
    <mxGraphModel dx="880" dy="468" grid="1" gridSize="10" guides="1" tooltips="1" connect="1" arrows="1" fold="1" page="1" pageScale="1" pageWidth="850" pageHeight="1100" math="0" shadow="0">
      <root>
        <mxCell id="0" />
        <mxCell id="1" parent="0" />
        <mxCell id="fsGJ0zqbrlUtm0BHuLHG-2" value="AccountName" style="rounded=0;whiteSpace=wrap;html=1;" vertex="1" parent="1">
          <mxGeometry x="170" y="150" width="120" height="60" as="geometry" />
        </mxCell>
        <mxCell id="fsGJ0zqbrlUtm0BHuLHG-25" style="edgeStyle=orthogonalEdgeStyle;rounded=0;orthogonalLoop=1;jettySize=auto;html=1;entryX=0.5;entryY=1;entryDx=0;entryDy=0;" edge="1" parent="1" source="fsGJ0zqbrlUtm0BHuLHG-3" target="fsGJ0zqbrlUtm0BHuLHG-5">
          <mxGeometry relative="1" as="geometry">
            <Array as="points">
              <mxPoint x="350" y="230" />
              <mxPoint x="470" y="230" />
            </Array>
          </mxGeometry>
        </mxCell>
        <mxCell id="fsGJ0zqbrlUtm0BHuLHG-26" style="edgeStyle=orthogonalEdgeStyle;rounded=0;orthogonalLoop=1;jettySize=auto;html=1;entryX=0.5;entryY=1;entryDx=0;entryDy=0;" edge="1" parent="1" source="fsGJ0zqbrlUtm0BHuLHG-3" target="fsGJ0zqbrlUtm0BHuLHG-6">
          <mxGeometry relative="1" as="geometry" />
        </mxCell>
        <mxCell id="fsGJ0zqbrlUtm0BHuLHG-27" style="edgeStyle=orthogonalEdgeStyle;rounded=0;orthogonalLoop=1;jettySize=auto;html=1;entryX=0.5;entryY=1;entryDx=0;entryDy=0;" edge="1" parent="1" source="fsGJ0zqbrlUtm0BHuLHG-3" target="fsGJ0zqbrlUtm0BHuLHG-2">
          <mxGeometry relative="1" as="geometry">
            <Array as="points">
              <mxPoint x="350" y="230" />
              <mxPoint x="230" y="230" />
            </Array>
          </mxGeometry>
        </mxCell>
        <mxCell id="fsGJ0zqbrlUtm0BHuLHG-28" style="edgeStyle=orthogonalEdgeStyle;rounded=0;orthogonalLoop=1;jettySize=auto;html=1;entryX=0.5;entryY=0;entryDx=0;entryDy=0;" edge="1" parent="1" source="fsGJ0zqbrlUtm0BHuLHG-3" target="fsGJ0zqbrlUtm0BHuLHG-8">
          <mxGeometry relative="1" as="geometry" />
        </mxCell>
        <mxCell id="fsGJ0zqbrlUtm0BHuLHG-3" value="&lt;u&gt;AccountNumber&lt;/u&gt;" style="rounded=0;whiteSpace=wrap;html=1;" vertex="1" parent="1">
          <mxGeometry x="290" y="150" width="120" height="60" as="geometry" />
        </mxCell>
        <mxCell id="fsGJ0zqbrlUtm0BHuLHG-5" value="Balance" style="rounded=0;whiteSpace=wrap;html=1;" vertex="1" parent="1">
          <mxGeometry x="410" y="150" width="120" height="60" as="geometry" />
        </mxCell>
        <mxCell id="fsGJ0zqbrlUtm0BHuLHG-6" value="PIN" style="rounded=0;whiteSpace=wrap;html=1;" vertex="1" parent="1">
          <mxGeometry x="530" y="150" width="120" height="60" as="geometry" />
        </mxCell>
        <mxCell id="fsGJ0zqbrlUtm0BHuLHG-33" style="edgeStyle=orthogonalEdgeStyle;rounded=0;orthogonalLoop=1;jettySize=auto;html=1;entryX=0.5;entryY=1;entryDx=0;entryDy=0;" edge="1" parent="1" source="fsGJ0zqbrlUtm0BHuLHG-7" target="fsGJ0zqbrlUtm0BHuLHG-18">
          <mxGeometry relative="1" as="geometry">
            <Array as="points">
              <mxPoint x="230" y="540" />
              <mxPoint x="710" y="540" />
            </Array>
          </mxGeometry>
        </mxCell>
        <mxCell id="fsGJ0zqbrlUtm0BHuLHG-7" value="&lt;u&gt;TransactionID&lt;/u&gt;" style="rounded=0;whiteSpace=wrap;html=1;" vertex="1" parent="1">
          <mxGeometry x="170" y="440" width="120" height="60" as="geometry" />
        </mxCell>
        <mxCell id="fsGJ0zqbrlUtm0BHuLHG-30" style="edgeStyle=orthogonalEdgeStyle;rounded=0;orthogonalLoop=1;jettySize=auto;html=1;entryX=0.583;entryY=1;entryDx=0;entryDy=0;entryPerimeter=0;endArrow=none;endFill=0;" edge="1" parent="1" source="fsGJ0zqbrlUtm0BHuLHG-8" target="fsGJ0zqbrlUtm0BHuLHG-9">
          <mxGeometry relative="1" as="geometry">
            <mxPoint x="480" y="510" as="targetPoint" />
            <Array as="points">
              <mxPoint x="350" y="540" />
              <mxPoint x="481" y="540" />
            </Array>
          </mxGeometry>
        </mxCell>
        <mxCell id="fsGJ0zqbrlUtm0BHuLHG-8" value="&lt;u&gt;AccountNumber1&lt;/u&gt;" style="rounded=0;whiteSpace=wrap;html=1;" vertex="1" parent="1">
          <mxGeometry x="290" y="440" width="120" height="60" as="geometry" />
        </mxCell>
        <mxCell id="fsGJ0zqbrlUtm0BHuLHG-9" value="Amount" style="rounded=0;whiteSpace=wrap;html=1;" vertex="1" parent="1">
          <mxGeometry x="410" y="440" width="120" height="60" as="geometry" />
        </mxCell>
        <mxCell id="fsGJ0zqbrlUtm0BHuLHG-10" value="TransactionType" style="rounded=0;whiteSpace=wrap;html=1;" vertex="1" parent="1">
          <mxGeometry x="530" y="440" width="120" height="60" as="geometry" />
        </mxCell>
        <mxCell id="fsGJ0zqbrlUtm0BHuLHG-11" value="Name" style="rounded=0;whiteSpace=wrap;html=1;" vertex="1" parent="1">
          <mxGeometry x="170" y="760" width="120" height="60" as="geometry" />
        </mxCell>
        <mxCell id="fsGJ0zqbrlUtm0BHuLHG-21" style="edgeStyle=orthogonalEdgeStyle;rounded=0;orthogonalLoop=1;jettySize=auto;html=1;entryX=0.5;entryY=1;entryDx=0;entryDy=0;" edge="1" parent="1" source="fsGJ0zqbrlUtm0BHuLHG-12" target="fsGJ0zqbrlUtm0BHuLHG-13">
          <mxGeometry relative="1" as="geometry">
            <mxPoint x="470" y="890" as="targetPoint" />
            <Array as="points">
              <mxPoint x="350" y="850" />
              <mxPoint x="470" y="850" />
            </Array>
          </mxGeometry>
        </mxCell>
        <mxCell id="fsGJ0zqbrlUtm0BHuLHG-22" style="edgeStyle=orthogonalEdgeStyle;rounded=0;orthogonalLoop=1;jettySize=auto;html=1;entryX=0.5;entryY=1;entryDx=0;entryDy=0;" edge="1" parent="1" source="fsGJ0zqbrlUtm0BHuLHG-12" target="fsGJ0zqbrlUtm0BHuLHG-14">
          <mxGeometry relative="1" as="geometry">
            <Array as="points">
              <mxPoint x="350" y="850" />
              <mxPoint x="590" y="850" />
            </Array>
          </mxGeometry>
        </mxCell>
        <mxCell id="fsGJ0zqbrlUtm0BHuLHG-23" style="edgeStyle=orthogonalEdgeStyle;rounded=0;orthogonalLoop=1;jettySize=auto;html=1;entryX=0.5;entryY=1;entryDx=0;entryDy=0;" edge="1" parent="1" source="fsGJ0zqbrlUtm0BHuLHG-12" target="fsGJ0zqbrlUtm0BHuLHG-20">
          <mxGeometry relative="1" as="geometry">
            <Array as="points">
              <mxPoint x="350" y="850" />
              <mxPoint x="710" y="850" />
            </Array>
          </mxGeometry>
        </mxCell>
        <mxCell id="fsGJ0zqbrlUtm0BHuLHG-12" value="&lt;u&gt;CNIC&lt;/u&gt;" style="rounded=0;whiteSpace=wrap;html=1;" vertex="1" parent="1">
          <mxGeometry x="290" y="760" width="120" height="60" as="geometry" />
        </mxCell>
        <mxCell id="fsGJ0zqbrlUtm0BHuLHG-13" value="Address" style="rounded=0;whiteSpace=wrap;html=1;" vertex="1" parent="1">
          <mxGeometry x="410" y="760" width="120" height="60" as="geometry" />
        </mxCell>
        <mxCell id="fsGJ0zqbrlUtm0BHuLHG-14" value="Contact" style="rounded=0;whiteSpace=wrap;html=1;" vertex="1" parent="1">
          <mxGeometry x="530" y="760" width="120" height="60" as="geometry" />
        </mxCell>
        <mxCell id="fsGJ0zqbrlUtm0BHuLHG-15" value="Account" style="text;strokeColor=none;fillColor=none;html=1;fontSize=24;fontStyle=1;verticalAlign=middle;align=center;" vertex="1" parent="1">
          <mxGeometry x="170" y="110" width="100" height="40" as="geometry" />
        </mxCell>
        <mxCell id="fsGJ0zqbrlUtm0BHuLHG-16" value="Transaction" style="text;strokeColor=none;fillColor=none;html=1;fontSize=24;fontStyle=1;verticalAlign=middle;align=center;" vertex="1" parent="1">
          <mxGeometry x="180" y="400" width="100" height="40" as="geometry" />
        </mxCell>
        <mxCell id="fsGJ0zqbrlUtm0BHuLHG-17" value="3NF Database Design" style="text;strokeColor=none;fillColor=none;html=1;fontSize=24;fontStyle=1;verticalAlign=middle;align=center;" vertex="1" parent="1">
          <mxGeometry x="360" y="40" width="100" height="40" as="geometry" />
        </mxCell>
        <mxCell id="fsGJ0zqbrlUtm0BHuLHG-18" value="Timestamp" style="rounded=0;whiteSpace=wrap;html=1;" vertex="1" parent="1">
          <mxGeometry x="650" y="440" width="120" height="60" as="geometry" />
        </mxCell>
        <mxCell id="fsGJ0zqbrlUtm0BHuLHG-19" value="USER" style="text;strokeColor=none;fillColor=none;html=1;fontSize=24;fontStyle=1;verticalAlign=middle;align=center;" vertex="1" parent="1">
          <mxGeometry x="150" y="720" width="100" height="40" as="geometry" />
        </mxCell>
        <mxCell id="fsGJ0zqbrlUtm0BHuLHG-20" value="AccountNumber" style="rounded=0;whiteSpace=wrap;html=1;" vertex="1" parent="1">
          <mxGeometry x="650" y="760" width="120" height="60" as="geometry" />
        </mxCell>
        <mxCell id="fsGJ0zqbrlUtm0BHuLHG-24" style="edgeStyle=orthogonalEdgeStyle;rounded=0;orthogonalLoop=1;jettySize=auto;html=1;entryX=0.392;entryY=0.983;entryDx=0;entryDy=0;entryPerimeter=0;" edge="1" parent="1" source="fsGJ0zqbrlUtm0BHuLHG-12" target="fsGJ0zqbrlUtm0BHuLHG-11">
          <mxGeometry relative="1" as="geometry">
            <Array as="points">
              <mxPoint x="350" y="850" />
              <mxPoint x="217" y="850" />
            </Array>
          </mxGeometry>
        </mxCell>
        <mxCell id="fsGJ0zqbrlUtm0BHuLHG-29" style="edgeStyle=orthogonalEdgeStyle;rounded=0;orthogonalLoop=1;jettySize=auto;html=1;entryX=0.575;entryY=0.95;entryDx=0;entryDy=0;entryPerimeter=0;" edge="1" parent="1" source="fsGJ0zqbrlUtm0BHuLHG-7" target="fsGJ0zqbrlUtm0BHuLHG-9">
          <mxGeometry relative="1" as="geometry">
            <Array as="points">
              <mxPoint x="230" y="540" />
              <mxPoint x="479" y="540" />
            </Array>
          </mxGeometry>
        </mxCell>
        <mxCell id="fsGJ0zqbrlUtm0BHuLHG-31" style="edgeStyle=orthogonalEdgeStyle;rounded=0;orthogonalLoop=1;jettySize=auto;html=1;" edge="1" parent="1" source="fsGJ0zqbrlUtm0BHuLHG-7">
          <mxGeometry relative="1" as="geometry">
            <mxPoint x="602" y="500" as="targetPoint" />
            <Array as="points">
              <mxPoint x="230" y="540" />
              <mxPoint x="602" y="540" />
            </Array>
          </mxGeometry>
        </mxCell>
        <mxCell id="fsGJ0zqbrlUtm0BHuLHG-34" style="edgeStyle=orthogonalEdgeStyle;rounded=0;orthogonalLoop=1;jettySize=auto;html=1;entryX=0.35;entryY=0.067;entryDx=0;entryDy=0;entryPerimeter=0;" edge="1" parent="1" source="fsGJ0zqbrlUtm0BHuLHG-3" target="fsGJ0zqbrlUtm0BHuLHG-20">
          <mxGeometry relative="1" as="geometry">
            <Array as="points">
              <mxPoint x="350" y="230" />
              <mxPoint x="790" y="230" />
              <mxPoint x="790" y="710" />
              <mxPoint x="692" y="710" />
            </Array>
          </mxGeometry>
        </mxCell>
      </root>
    </mxGraphModel>
  </diagram>
</mxfile>
